<?xml version="1.0" encoding="utf-8"?>
<!-- Generator: Adobe Illustrator 18.1.1, SVG Export Plug-In . SVG Version: 6.00 Build 0)  -->
<!DOCTYPE svg PUBLIC "-//W3C//DTD SVG 1.1//EN" "http://www.w3.org/Graphics/SVG/1.1/DTD/svg11.dtd">
<svg version="1.1" id="Layer_1" xmlns="http://www.w3.org/2000/svg" xmlns:xlink="http://www.w3.org/1999/xlink" x="0px" y="0px"
	 viewBox="0 0 283.5 283.5" enable-background="new 0 0 283.5 283.5" xml:space="preserve">
<g>
	<path fill="#1D1D1B" d="M246.8,145.6c-1.1-1.6-2.4-3-4-4.2c0.8,0.1,1.7,0.3,2.6,0.3c1.2,0.1,2.4,0.2,3.6,0.2c7.3,0,14-2.3,19.1-6.6
		c6.9-5.7,11.1-15.2,10.7-24.2c-0.3-7-3.4-12.8-8.6-16.4c-2.9-2-6.4-3-10.1-3.2c0.6-2.9,1.1-5.8,1.3-8.9c0.2-2.2,0.3-4.4,0.3-6.7
		c0-22.5-8.3-40-24.9-52.6c-16.6-12.6-45.9-18.9-88-18.9l-83,1.2c-10,0-18.8-0.2-26.4-0.6L34,4.9c-8.4,0-12.6,2.2-12.6,6.7
		c0,3.8,2.4,5.7,7.1,5.7c10.6,0,18,2.6,22.2,7.8C54.9,30.4,57,37.3,57,46l0.1,44.6c-1.7,1.7-3.4,3.3-5.1,5.1c-3.5-0.7-6.9-1-10.3-1
		c-9.2,0.1-18.2,3-26.5,9.9c-6.6,5.5-10.4,14.2-10,22.8c0.3,7.3,3.6,13.4,9.2,17.3c0.6,0.4,1.2,0.7,1.8,1h-11v8.8h52h56.4h165.2
		v-8.8H246.8z M267.2,99c5,3.4,6.2,8.6,6.4,12.4c0.3,7.4-3.1,15.2-8.8,19.9c-4.9,4.1-11.6,5.9-18.8,5.2c-4.9-0.5-9.6-2.1-13.6-4.6
		c0.9-0.6,1.7-1.2,2.6-1.8c0.7-0.5,1.3-1,2-1.6c1.9-1.5,3.6-3.1,5.3-4.7c0.7-0.7,1.4-1.4,2-2.1c0.6,0.6,1.2,1.1,1.9,1.5
		c4.8,3,12.5,2.6,17.1-0.9c2.6-2,4-4.7,4.1-7.8c0-1.7-1.7-3-3.3-2.5c-1.1,0.3-1.9,1.4-1.9,2.6c0,1.4-0.7,2.6-2,3.6
		c-2.9,2.2-8.3,2.5-11.2,0.6c-0.4-0.3-0.8-0.6-1.2-1.1c2.7-3.3,4.9-6.8,6.8-10.5c1.8-3.4,3.2-7,4.3-10.7
		C261.8,96.7,264.9,97.4,267.2,99z M231.3,137.4c-2.8-0.1-5.6,0.4-8.1,1.4c0.4-0.7,0.8-1.4,1.2-2.1c1.1-0.5,2.1-1.1,3.1-1.7
		C228.7,135.9,230,136.7,231.3,137.4z M181,78.5c4.1-2.1,8-4.4,11.8-6.5c1-0.6,2.1-1.1,3.2-1.6c0,1,0,2-0.1,3
		c-0.3,7.6-1.5,14.7-3.7,21.3c-4.9-0.3-9.9,0.3-14.9,1.5c2.6-2.7,4.4-6.2,4.8-9.8C182.3,83.7,181.9,81,181,78.5z M161.3,128.3
		c0-4.5,3.6-8.1,8.1-8.1c0.8,0,1.6,0.3,2.3,0.7c1,0.6,1.8,1.3,2.3,1.9c-1,0.9-2,1.7-3.1,2.5c-2.9,2.1-6,3.9-9.3,5.4
		C161.4,129.9,161.3,129.1,161.3,128.3z M189.1,102.4c-2.2,4.5-4.8,8.8-8,12.8c-0.4,0.5-0.8,1-1.2,1.6c-0.6,0.8-1.3,1.5-2,2.2
		c-0.9-1.1-2.1-2-3.3-2.7c-2.1-1.2-4.7-1.6-7.3-1.2c-0.6,0.1-1.1,0.2-1.7,0.4c0-0.1,0-0.2,0-0.3c0.5-2.2,0.7-4.5,0.6-6.8
		c0-1-0.2-2.1-0.3-3c2.6-1.1,5.1-2.2,7.7-3c0.4-0.1,0.8-0.3,1.2-0.4c5.2-1.6,10.4-2.4,15.5-2.3C189.9,100.6,189.5,101.5,189.1,102.4
		z M177.6,85.9c-0.2,2.1-1.2,4.3-2.6,6.1c-2,2.6-4.9,4.5-7.8,4.8c-1.7,0.2-3.7-0.2-5.6-1.1c-1.1-1.4-2.5-2.6-4-3.7
		c-0.6-0.4-1.2-0.8-1.8-1.1c-1-1.5-1.5-3-1.3-4.2c0.4-3,3.6-6.3,6.7-7c1.9-0.4,3.4,0.2,4.6,2l3.7-2.5c-2.2-3.3-5.5-4.7-9.3-3.8
		c-4.8,1.1-9.4,5.9-10.1,10.6c-0.1,1-0.1,2,0.1,3c-6-1-12.5,0.5-16.7,4.4c-0.2,0.2-0.4,0.5-0.7,0.7c2.7-11.8,10.1-22.6,22.4-24.7
		c6.3-1.1,13.3,1,17.9,5.3c0.8,0.7,1.5,1.6,2.2,2.6C176.8,79.6,178,82.4,177.6,85.9z M159.7,102.7c-7.9,3.9-15.5,8.9-22.5,14
		c-0.3-0.1-0.7-0.3-1-0.5c-1.6-1-2.8-3.5-3.1-6.6c-0.5-4.7,1.1-9.7,3.9-12.3c4.2-3.9,12.4-4.4,17.4-1.1c0.7,0.6,1.4,1.2,2.2,1.8
		C158.1,99.5,159.1,101.1,159.7,102.7z M138.3,122.4c4.2,0.7,9.1-0.2,12.3-2.6c2.8-2.1,4.2-5.1,4.1-8.5c2.1-1.2,4.2-2.4,6.3-3.5
		c0,0.3,0,0.6,0.1,0.9c0.2,4.5-1,9.1-3.3,13.1c0,0,0,0.1-0.1,0.1c-0.7,1.2-1.4,2.3-2.2,3.3c-1,1.2-2.1,2.4-3.3,3.4
		c-6.2,5.2-13.7,7-21.2,6.5c-2.8-0.2-5.5-0.7-8.3-1.5c2.6-1.4,5.1-3.1,7.4-4.9C132.8,126.7,135.5,124.5,138.3,122.4z M156.7,132.6
		c-0.6,0.2-1.2,0.4-1.8,0.5c0.2-0.1,0.4-0.3,0.6-0.4c0.3-0.3,0.7-0.6,1-0.9C156.6,132,156.7,132.3,156.7,132.6z M126.9,124.7
		c-2.3,1.8-4.8,3.4-7.4,4.8c-1.2,0.6-2.3,1.2-3.5,1.8c-0.8-0.4-1.6-0.8-2.4-1.2V115c1.4,0,2.8-0.1,4.1-0.4c0.6-0.1,1.2-0.3,1.7-0.4
		c3-0.9,5.2-2.5,7.4-4.6c0.3,4.1,3.1,7.8,5.8,10.6C130.8,121.7,128.8,123.2,126.9,124.7z M122.8,106.8c-0.9,0.9-2.1,1.7-3.5,2.3
		c-1.8,0.7-3.8,1.1-5.8,1.1v-13c0.4,0.6,0.7,1.7,0.6,3.4l4.8,0.4c0.4-5.7-2.6-8.2-4.4-9.1c-0.3-0.2-0.7-0.3-1-0.4V77
		c0.8,0.4,1.5,0.7,2.3,1.2c1.1,0.6,2.1,1.2,3,2c4.1,3.3,6.9,8.1,7.8,13.3C127.5,98.6,126.1,103.3,122.8,106.8z M144.9,19.1
		c14.4,0,26.5,4.3,36.3,12.8c8.8,7.7,13.7,18.7,14.6,33.2c-1.9,0.8-3.7,1.7-5.4,2.6c-3.2,1.9-6.5,3.8-9.9,5.6
		c-0.6,0.3-1.2,0.7-1.8,1c-0.7-1-1.5-1.9-2.5-2.8c-0.2-0.2-0.4-0.4-0.6-0.6c-5.6-4.9-13.8-7.2-21.1-5.9
		c-12.4,2.1-20.4,11.5-24.4,22.5c-2.1-5.6-6.2-10.5-11.3-13.4c-0.2-0.1-0.4-0.2-0.6-0.3c-1.5-0.8-3.1-1.5-4.6-2.2V22.6
		C127,20.3,137.4,19.1,144.9,19.1z M17.3,140.3c-4.2-2.9-6.7-7.6-6.9-13.2c-0.3-7,2.8-14.1,8.1-18.5c7.3-6,15.1-8.6,23.2-8.8
		c0,0,0.1,0,0.1,0c0.2,0,0.2,0.3,0,0.3c-0.1,0-0.1,0-0.2,0.1c-7.2,2.1-12.5,8.7-12.5,16.6c0,1.2,0.2,2.3,0.4,3.4
		c-2.3,0.2-4.8,0.9-6.7,2.5c-1.4,1.1-3.4,3.5-3.2,7.5c0.1,1.7,1.7,2.8,3.3,2.3c1.2-0.3,1.9-1.4,1.9-2.6c-0.1-1.9,0.8-2.7,1.1-3
		c1.8-1.6,5.1-1.7,5.8-1.4c0.2,0.1,0.4,0.3,0.6,0.5c0.3,0.4,0.6,0.8,1,1.1c0.6,0.8,1,1.8,1.4,2.9c0.8,2.8,0.6,5.9-0.7,8.1
		c-1.1,1.9-3.2,3.3-6.1,3.9C24.2,142.7,20,142.1,17.3,140.3z M33,145.6c2.5-1.2,4.4-2.9,5.7-5.1c1.6-2.8,2.2-6.3,1.7-9.8
		c0.5,0.1,0.9,0.2,1.4,0.3c0.1,0,0.1,0,0.2,0c5.9,0.7,11.2-2.9,13.1-8.5c1.9-5.8-1.2-11.2-6.1-13c-1.7-0.6-3.5,0.6-3.5,2.4v0.1
		c0,1.1,0.7,2.1,1.7,2.5c3.6,1.3,5.2,6.6-0.5,10.5c-1,0.6-2.1,1-3.2,1c-0.6,0-1.1-0.1-1.6-0.2c-1.7-0.3-3.2-1.2-4.4-2.3
		c-0.3-0.4-0.6-0.8-1-1.1c-1.2-1.6-1.9-3.5-1.9-5.6c0-5,3-9.3,7.4-11.1c1.5-0.6,3.1-1,4.8-1c3.6,0,7.3,1.2,10.7,3.5l0,1.9
		c0,5.1,0,10.3,0,15.8c0,1.7,0,3.5,0,5.3c0,4.7,0,9.6,0,14.6H33z M198.8,145.6c0,0,0.1,0,0.1,0c0,0,0,0,0.1,0H198.8z M221.7,145.6
		c4.3-3.7,12.4-4,17.3-0.7c0.3,0.2,0.6,0.4,0.9,0.7H221.7z"/>
	<path fill="#1D1D1B" d="M57.1,175H5.2v8.8h11c-0.6,0.3-1.2,0.6-1.8,1c-5.6,3.9-8.8,10-9.2,17.3c-0.4,8.6,3.4,17.3,10,22.8
		c3.8,3.1,7.6,5.4,11.6,7c4.4,1.8,9,2.7,13.6,2.9c3.9,0.1,7.7-0.2,11.6-1c1.2,1.2,2.4,2.4,3.6,3.7c-0.3,3.6-0.6,6.4-1,8.3
		c-1.4,7-3.7,11.9-6.8,14.6c-3.1,2.8-8.4,4.7-15.9,5.8c-7.5,1.1-11.2,3.1-11.2,6.1c0,3.8,2.2,5.7,6.5,5.7c5,0,13-0.4,24-1.2
		c13.3-0.9,23.7-1.4,31.3-1.4c6.9,0,19.1,0.5,36.4,1.4c12.9,0.8,21.1,1.2,24.6,1.2c7.9,0,11.8-1.8,11.8-5.3c0-2.4-0.8-4.1-2.4-5
		c-1.6-0.9-5.6-1.4-11.8-1.5c-8.6-0.3-15.1-2.4-19.7-6.5c-0.4-0.4-0.8-0.8-1.2-1.2c-0.8-0.8-1.5-1.9-2.2-3.1c0,0,0.1,0,0.1-0.1
		c6.9-3.7,12-11,13.3-18.8c0.1-0.9,0.2-1.9,0.3-2.8c0.5,0.7,1.1,1.4,1.7,2c6.1,5.7,17.1,6.3,24.2,1.5c3.1-2.1,5.4-5,6.9-8.5
		c1,0.4,1.9,0.8,2.9,1.2c15.3,6,31.2,7.3,45.4-2.2c-1.8,3.8-2.2,8.6-1.1,13.1c1.1,4.3,3.4,7.6,6.5,8.9c4.8,2.1,11.8,0.7,15.6-3.1
		c2.9-2.9,3.5-6.8,1.8-10.7l-4.4,2c0.9,2.1,0.7,3.8-0.8,5.3c-2.4,2.4-7.2,3.4-10.2,2.1c-1.6-0.7-3-2.8-3.7-5.6
		c-1.1-4.3-0.3-9,1.9-11.8c3.3-4.2,11-5.8,16-3.3c5,2.5,6.8,7.1,7.5,10.5c1.3,6.7-0.8,14.3-5.4,19.4c-11.1,12.4-1.9,8.9,3.6,3.2
		c5.8-5.9,8.1-15.4,6.5-23.6c0-0.3-0.1-0.6-0.2-0.8c6.1,5.4,16.9,6,23.8,1.2c5.2-3.6,8.3-9.5,8.6-16.4c0.4-8.9-3.8-18.4-10.7-24.2
		c-5.1-4.3-11.8-6.6-19.1-6.6c-1.2,0-2.4,0.1-3.6,0.2c-0.8,0.1-1.6,0.2-2.4,0.3c1.5-1.2,2.8-2.6,3.9-4.2h31.9V175H113.5H57.1z
		 M41.9,229.7c-0.4,0-0.8,0-1.1,0c-4.6-0.2-9.1-1.2-13.5-3.2c-3-1.4-5.9-3.2-8.7-5.5c-5.3-4.4-8.4-11.5-8.1-18.6
		c0.3-5.6,2.7-10.3,6.9-13.2c2.6-1.8,6.9-2.4,10.7-1.6c2.9,0.7,5,2,6.1,3.9c1.3,2.2,1.5,5.3,0.7,8.1c-0.3,1.1-0.8,2.1-1.4,2.9
		c-0.4,0.3-0.7,0.7-1,1.1c-0.2,0.2-0.4,0.3-0.6,0.5c-0.7,0.3-4,0.2-5.8-1.4c-0.3-0.3-1.2-1.1-1.1-3c0-1.2-0.7-2.3-1.9-2.6
		c-1.6-0.5-3.3,0.7-3.3,2.3c-0.2,4,1.8,6.3,3.2,7.5c1.9,1.6,4.5,2.3,6.7,2.5c-0.3,1.1-0.4,2.2-0.4,3.4c0,1.8,0.3,3.6,0.8,5.3
		c1.7,5.1,5.7,9.2,10.8,11c0.4,0.1,0.8,0.3,1.2,0.4C42.1,229.4,42.1,229.7,41.9,229.7z M46.5,224.8c-2,0-3.9-0.5-5.5-1.3
		c-3.9-2-6.6-6.1-6.6-10.8c0-0.5,0-1,0.1-1.5c0.3-1.5,0.9-2.9,1.8-4.1c0.4-0.3,0.7-0.7,1-1.1c1.1-1.1,2.5-1.9,4.1-2.2
		c0.6-0.2,1.3-0.2,1.9-0.3c0.3,0,0.6,0,0.9,0.1c0.8,0.1,1.6,0.5,2.3,0.9c5.8,3.8,4.1,9.2,0.5,10.5c-1,0.4-1.7,1.4-1.7,2.4v0.1
		c0,1.8,1.8,3,3.5,2.4c4.9-1.8,8-7.2,6.1-13c-0.8-2.3-2.1-4.2-3.7-5.6c-2.5-2.2-5.8-3.3-9.4-2.9c-0.1,0-0.3,0-0.4,0.1
		c-0.4,0.1-0.8,0.1-1.2,0.2c0.5-3.5-0.1-6.9-1.7-9.8c-1.2-2.1-3.2-3.9-5.7-5.1h24.1c0,2,0,4.1,0,6.1c0,2.9,0,5.8-0.1,8.5
		c0,1.8,0,3.6-0.1,5.3c-0.1,6.8-0.2,12.8-0.4,18C53.3,223.7,49.9,224.8,46.5,224.8z M126.7,236c-1,6.3-5,12.1-10.5,15.2
		c-1.1-3.5-1.9-7.9-2.4-13.1c0.3-0.1,0.5-0.2,0.8-0.4c0.4-0.2,0.9-0.5,1.4-0.9c1.7-1.3,3.4-3.8,3.1-8.2l-1.8,0.1l-3,0.2
		c0.1,1.8-0.3,2.9-0.7,3.5c-0.1-1.6-0.1-3.3-0.1-5.1V227l0-7.7c0,0,0,0,0.1,0c1.5,0,3.1,0.2,4.6,0.7c1.9,0.6,3.6,1.5,4.8,2.7
		C126.1,226.1,127.5,230.8,126.7,236z M127.9,219.3c-0.1,0.6-0.1,1.2-0.1,1.8c-0.5-0.6-1-1.2-1.5-1.8c-2-2.1-4.8-3.6-7.9-4.3
		c-0.3-0.1-0.5-0.1-0.8-0.2c-1.4-0.3-2.8-0.4-4.3-0.4l0-10.7l0-4.3c0.8-0.4,1.7-0.8,2.5-1.2c1.1,0.5,2.2,1,3.2,1.6
		c2.7,1.4,5.3,3.1,7.7,4.9c1.9,1.5,3.8,3,5.8,4.6C130.1,211.4,128.4,214.9,127.9,219.3z M154.6,233.1c-5,3.4-13.4,3-17.6-1
		c-2.8-2.6-4.4-7.6-3.9-12.3c0.3-3.1,1.5-5.6,3.1-6.6c0.3-0.2,0.6-0.3,1-0.5c7,5.1,14.6,10.1,22.5,14
		C158.8,229,157.2,231.3,154.6,233.1z M161,220.7c0,0.3,0,0.6-0.1,0.9c-2.1-1.1-4.2-2.3-6.3-3.5c0.2-3.4-1.2-6.4-4.1-8.5
		c-3.3-2.5-8.1-3.4-12.3-2.7c-2.8-2.1-5.5-4.2-8.2-6.4c-2.3-1.8-4.8-3.4-7.4-4.9c10.2-2.9,20.9-2.1,29.5,5c2.2,1.8,4.1,4.1,5.5,6.7
		c0,0,0,0.1,0.1,0.1C160,211.6,161.2,216.3,161,220.7z M245.9,192.9c7.2-0.7,13.9,1.1,18.8,5.2c5.7,4.7,9.2,12.6,8.8,19.9
		c-0.2,3.8-1.4,8.9-6.4,12.4c-5,3.5-13.4,3-17.6-1c-2.8-2.6-4.3-7.6-3.9-12.3c0.3-3.1,1.5-5.6,3.1-6.6c3-1.9,8.3-1.5,11.2,0.6
		c1.3,1,1.9,2.2,2,3.6c0,1.2,0.8,2.2,1.9,2.6c1.7,0.5,3.3-0.8,3.3-2.5c0-3.1-1.4-5.8-4.1-7.8c-4.6-3.5-12.3-3.9-17.1-0.9
		c-3.1,1.9-5.1,5.7-5.5,10.5c-0.2,2.4-0.1,4.7,0.4,7c-1.3-1.3-2.8-2.3-4.5-3.1c-4.6-2.3-10.4-2.2-15.3-0.2
		c3.8-5.2,5.9-11.7,5.6-18.1c0,0,0,0,0-0.1C231.2,197.1,238.4,193.7,245.9,192.9z M223.3,190.8c2.5,0.9,5.1,1.4,7.8,1.3
		c-2,1.1-3.8,2.3-5.5,3.7C225.1,194,224.3,192.4,223.3,190.8z M239.9,183.8c-0.3,0.3-0.6,0.5-1,0.8c-4.9,3.4-13.1,3-17.4-0.8H239.9z
		 M214.6,189.1c4.2,2.9,6.7,7.6,6.9,13.2c0.3,7-2.8,14.1-8.1,18.6c-13.5,11.2-29,10.6-44.3,4.4c-1.1-0.4-2.1-0.9-3.2-1.4
		c0.2-1,0.3-2,0.3-3c0.1-2.3-0.1-4.7-0.6-7c0.6,0.2,1.1,0.3,1.7,0.4c1.6,0.3,3.1,0.2,4.5-0.2c3.7-0.9,6.8-3.6,8.1-7.4
		c1.9-5.3-0.9-10.4-5.3-12.2c-0.1,0-0.2-0.1-0.3-0.1c-1.6-0.4-3.2,0.8-3.2,2.6v0.3c0,0.9,0.6,1.7,1.5,2.1c0.4,0.2,0.8,0.4,1.2,0.7
		c1.9,1.6,2.4,5-0.9,7.7c-0.4,0.3-0.8,0.6-1.2,0.9c-0.7,0.4-1.5,0.7-2.3,0.7c-4.5,0-8.1-3.6-8.1-8.1c0-5.9,4.8-10.8,10.8-10.8
		c0.8,0,1.6,0.1,2.4,0.2c6.9,1.1,14.6,6.6,19,13.8c0.1,0.2,0.2,0.4,0.3,0.6c0,0,0.1,0.1,0.1,0.2l0,0c1,1.5,2.3,2.8,3.7,3.5
		c2.2,1.2,7.8,1,11.4-1.8c1.4-1.1,3.4-3.5,3.2-7.5c-0.1-1.7-1.7-2.8-3.3-2.3c-1.2,0.3-1.9,1.4-1.9,2.6c0.1,1.9-0.8,2.7-1.1,3
		c-1.8,1.6-5.1,1.7-5.9,1.4c-0.6-0.3-1.2-0.9-1.7-1.6c-0.1-0.2-0.3-0.5-0.5-0.7c-0.3-0.6-0.6-1.3-0.8-2.1c-0.8-2.8-0.6-5.9,0.7-8.1
		c1.1-1.9,3.2-3.3,6.1-3.9C207.7,186.7,212,187.3,214.6,189.1z M199,183.8c-2.5,1.2-4.5,2.9-5.7,5.1c-0.9,1.5-1.4,3.3-1.7,5.1
		c-4.7-4.4-10.7-7.8-16.9-8.6c-0.9-0.1-1.8-0.2-2.7-0.2c-7.6,0-14,5.3-15.6,12.5c-0.3-0.3-0.7-0.6-1-0.9
		c-10.6-8.8-23.9-9.4-36.1-5.4c-1.2,0.4-2.3,0.8-3.5,1.2c-0.8-0.3-1.7-0.6-2.5-0.9l0-2.6l0-5.2H199z"/>
</g>
</svg>
